{"title":"Happythankyoumoreplease.2010.720p.BRRip.x264.Feel-Free","uid":6119743,"size":1910141488,"categoryP":"video","categoryS":"hd___movies","magnet":"?xt=urn:btih:3cc29df283aa15cd33a8c1de6b35a92ded266748&amp;dn=Happythankyoumoreplease.2010.720p.BRRip.x264.Feel-Free&amp;tr=udp%3A%2F%2Ftracker.openbittorrent.com%3A80&amp;tr=udp%3A%2F%2Fopen.demonii.com%3A1337&amp;tr=udp%3A%2F%2Ftracker.coppersurfer.tk%3A6969&amp;tr=udp%3A%2F%2Fexodus.desync.com%3A6969","seeders":1,"leechers":0,"uploader":"SaM","files":11,"time":1295654674,"description":"Genre:Comedy | Romance\nLanguage:English\nIMDb:http://www.imdb.com/title/tt1481572/\nSource:BluRay.x264.HD4U\n\n\nFormat                           : Matroska\nFile size                        : 1.77 GiB\nDuration                         : 1h 38mn\nOverall bit rate                 : 2 575 Kbps\n\n\nVideo\nFormat settings, CABAC           : Yes\nFormat settings, ReFrames        : 4 frames\nCodec ID                         : V_MPEG4/ISO/AVC\nDuration                         : 1h 38mn\nBit rate                         : 2 200 Kbps\nWidth                            : 1 280 pixels\nHeight                           : 720 pixels\nDisplay aspect ratio             : 16:9\nFrame rate mode                  : Variable\nFrame rate                       : 23.976 fps\nColor space                      : YUV\nChroma subsampling               : 4:2:0\nBit depth                        : 8 bits\nScan type                        : Progressive\nBits/(Pixel*Frame)               : 0.100\nStream size                      : 1.47 GiB (83%)\nWriting library                  : x264\n\n\nAudio\nID                               : 2\nFormat                           : AC-3\nFormat/Info                      : Audio Coding 3\nMode extension                   : CM (complete main)\nCodec ID                         : A_AC3\nDuration                         : 1h 38mn\nBit rate mode                    : Constant\nBit rate                         : 384 Kbps\nChannel(s)                       : 6 channels\nChannel positions                : Front: L C R, Side: L R, LFE\nSampling rate                    : 48.0 KHz\nBit depth                        : 16 bits\nVideo delay                      : -1mn 5s\nStream size                      : 271 MiB (15%)\nLanguage                         : English\n\n\n  \nPlot:\n  Captures a generational moment - young people on the cusp of truly growing up, tiring of their reflexive cynicism, each in their own ways struggling to connect and define what it means to love and be loved.\n\n\n\n &lt;a href=&quot;\nhttp://shareimage.org/images/8l4ltjwkkimq8k8a7rm.png&quot; rel=&quot;nofollow&quot; target=&quot;_NEW&quot;&gt;\nhttp://shareimage.org/images/8l4ltjwkkimq8k8a7rm.png&lt;/a&gt;\n &lt;a href=&quot;\nhttp://shareimage.org/images/13plhn5k0wju00wnyet8.png&quot; rel=&quot;nofollow&quot; target=&quot;_NEW&quot;&gt;\nhttp://shareimage.org/images/13plhn5k0wju00wnyet8.png&lt;/a&gt;\n &lt;a href=&quot;\nhttp://shareimage.org/images/zjd08y4sk37cv6vfpjq.png&quot; rel=&quot;nofollow&quot; target=&quot;_NEW&quot;&gt;\nhttp://shareimage.org/images/zjd08y4sk37cv6vfpjq.png&lt;/a&gt;\n &lt;a href=&quot;\nhttp://shareimage.org/images/ruh8o4jicy64y0eknolk.png&quot; rel=&quot;nofollow&quot; target=&quot;_NEW&quot;&gt;\nhttp://shareimage.org/images/ruh8o4jicy64y0eknolk.png&lt;/a&gt;\n &lt;a href=&quot;\nhttp://shareimage.org/images/bq6z5kxbptwg4tz9cnn4.png&quot; rel=&quot;nofollow&quot; target=&quot;_NEW&quot;&gt;\nhttp://shareimage.org/images/bq6z5kxbptwg4tz9cnn4.png&lt;/a&gt;\n &lt;a href=&quot;\nhttp://shareimage.org/images/2grr33t4l80cs3875zx0.png&quot; rel=&quot;nofollow&quot; target=&quot;_NEW&quot;&gt;\nhttp://shareimage.org/images/2grr33t4l80cs3875zx0.png&lt;/a&gt;\n &lt;a href=&quot;\nhttp://shareimage.org/images/o9j4hesnrgxwxgv11v70.png&quot; rel=&quot;nofollow&quot; target=&quot;_NEW&quot;&gt;\nhttp://shareimage.org/images/o9j4hesnrgxwxgv11v70.png&lt;/a&gt;\n\n\nGreets:\n\nINK,CRYS,IMAGINE,LKRG,FXG,3Li,FLAWL3SS,TA,iLLUSiON,ViSiON,LU,TheFalcon007,PrisM,Noir,WBZ,LAP,Rx,Kingdom,SAFCuk009+Fabreezy,HDLiTE,TWiZTED,ExtraTorrentRG.ELEKTRI4KA,MAGNAT,CM8\n                And to all the other p2p grps past and present \n \n\n\n\nMake sure its a real Feel-Free release @ extratorrent","torrent":{"xt":"urn:btih:3cc29df283aa15cd33a8c1de6b35a92ded266748","amp;dn":"Happythankyoumoreplease.2010.720p.BRRip.x264.Feel-Free","amp;tr":["udp%3A%2F%2Ftracker.openbittorrent.com%3A80","udp%3A%2F%2Fopen.demonii.com%3A1337","udp%3A%2F%2Ftracker.coppersurfer.tk%3A6969","udp%3A%2F%2Fexodus.desync.com%3A6969"],"infoHash":"3cc29df283aa15cd33a8c1de6b35a92ded266748","infoHashBuffer":{"type":"Buffer","data":[60,194,157,242,131,170,21,205,51,168,193,222,107,53,169,45,237,38,103,72]},"announce":[],"urlList":[]}}